<?xml version="1.0" encoding="utf-8"?>
<!-- Generator: Adobe Illustrator 15.0.2, SVG Export Plug-In . SVG Version: 6.00 Build 0)  -->
<!DOCTYPE svg PUBLIC "-//W3C//DTD SVG 1.1//EN" "http://www.w3.org/Graphics/SVG/1.1/DTD/svg11.dtd">
<svg version="1.1" id="Layer_1" xmlns="http://www.w3.org/2000/svg" xmlns:xlink="http://www.w3.org/1999/xlink" x="0px" y="0px"
	 width="300px" height="300px" viewBox="0 0 300 300" enable-background="new 0 0 300 300" xml:space="preserve">
<path fill="white" d="M188.03,131.394V13.38L162.43,37.349v116.035h0.801c38.609,4.27,68.08,26.889,68.08,54.18
	c0,30.32-36.4,54.91-81.311,54.91c-44.899,0-81.31-24.59-81.31-54.91c0-27.291,29.47-49.91,68.08-54.18h0.76v-22.012l-25.601-25.52
	v25.551C64.88,142.124,31,172.173,31,207.563c0,44.379,53.28,80.359,119,80.359s119-35.98,119-80.359
	C269,172.163,235.101,142.114,188.03,131.394z"/>
</svg>
